<svg width="32" height="32" viewBox="0 0 32 32" fill="none" xmlns="http://www.w3.org/2000/svg">
<path fill-rule="evenodd" clip-rule="evenodd" d="M7.3749 14.8879C12.7436 12.6299 16.3236 11.1413 18.1148 10.4221C23.2292 8.36862 24.2919 8.0119 24.9846 8.00013C25.1369 7.99753 25.4776 8.03398 25.6982 8.20682C25.8845 8.35275 25.9358 8.5499 25.9603 8.68826C25.9848 8.82663 26.0154 9.14183 25.9911 9.38811C25.714 12.1992 24.5147 19.021 23.9046 22.1694C23.6465 23.5017 23.1382 23.9484 22.6461 23.9921C21.5766 24.0871 20.7645 23.3098 19.7287 22.6543C18.1078 21.6287 17.1921 20.9902 15.6188 19.9893C13.8005 18.8327 14.9792 18.1969 16.0154 17.158C16.2866 16.8861 20.9987 12.7487 21.0899 12.3733C21.1013 12.3264 21.1119 12.1514 21.0042 12.059C20.8965 11.9666 20.7376 11.9982 20.6229 12.0234C20.4604 12.059 17.871 13.7111 12.8549 16.9798C12.1199 17.467 11.4542 17.7044 10.8577 17.6919C10.2001 17.6782 8.93528 17.333 7.99498 17.038C6.84166 16.6761 5.92503 16.4847 6.00485 15.8701C6.04642 15.55 6.5031 15.2226 7.3749 14.8879Z" fill="#AB2EB2"/>
</svg>
