<svg xmlns="http://www.w3.org/2000/svg" width="160" height="40" fill="none">
  <g clip-path="url(#a)">
    <path fill="#011937" d="m58.02 20.369-5.527-8.717 5.323-6.754H52.33l-5.022 7.116V4.897h-5.205V20.37h5.205V12.47l4.78 7.899zM40.462 4.888H24.245v4.747h5.486v10.729h5.245V9.634h5.486zM74.316 7.542c-.514-.848-1.266-1.5-2.244-1.962q-1.476-.692-3.544-.692h-8.883v15.476h5.245v-4.21h3.638q2.076 0 3.544-.693 1.474-.692 2.244-1.962.77-1.273.77-2.98c0-1.14-.256-2.139-.77-2.982zm-4.938 4.075c-.287.261-.682.391-1.201.391h-3.292v-2.97h3.292q.771-.002 1.2.381c.288.256.426.622.426 1.104s-.143.833-.425 1.094M98.338 4.888h-5.244v15.476h5.244zM89.08 9.79q-1.476-.692-3.544-.692h-3.638v-4.21h-5.244v15.476h8.882q2.076 0 3.544-.693c.979-.461 1.73-1.114 2.244-1.962q.771-1.272.771-2.98c0-1.14-.257-2.138-.77-2.981q-.774-1.27-2.245-1.963zm-2.694 6.037c-.286.261-.682.392-1.201.392h-3.292v-2.971h3.292q.772 0 1.201.381c.287.256.425.623.425 1.104s-.143.833-.425 1.094M116.201 4.888H99.984v4.747h5.486v10.729h5.245V9.634h5.486zM139.537 4.888h-5.245v15.476h5.245zM130.279 9.79q-1.476-.692-3.544-.692h-3.638v-4.21h-5.245v15.476h8.883q2.076 0 3.544-.693 1.474-.69 2.244-1.962t.771-2.98c0-1.14-.257-2.138-.771-2.981-.514-.848-1.266-1.5-2.244-1.963zm-2.694 6.037c-.287.261-.682.392-1.201.392h-3.292v-2.971h3.292q.77 0 1.201.381c.286.256.425.623.425 1.104s-.143.833-.425 1.094M153.149 4.888l-5.971 10.011V4.888h-5.205v15.476h6.644l6.178-10.343v10.343H160V4.888zM147.297 3.096c1.028.617 2.264.929 3.697.929s2.684-.312 3.707-.929q1.535-.926 2.061-3.096h-4.063c-.178.386-.405.672-.692.868-.286.19-.622.291-1.018.291-.395 0-.731-.095-1.018-.29-.287-.192-.514-.483-.692-.869h-4.063c.351 1.445 1.043 2.474 2.071 3.096zM57.693 39.628h5.59l-6.687-15.476h-6.99L42.92 39.628h5.59l1.043-2.599h7.103l1.043 2.6zm-6.445-6.83 1.853-4.621 1.854 4.622zM79.194 32.934c-.529-.542-1.285-.933-2.264-1.164a8 8 0 0 0-.523-.1 5 5 0 0 0 .627-.191q1.374-.513 1.982-1.38a3.23 3.23 0 0 0 .608-1.897c0-.878-.316-1.651-.954-2.308-.637-.663-1.522-1.175-2.664-1.546q-1.705-.557-4.004-.557-2.682-.001-4.542.773-1.86.775-2.837 2.052-.978 1.281-1.058 2.826h5.205c.079-.522.37-.924.865-1.2q.74-.412 2.125-.411.83 0 1.394.135c.37.09.658.226.855.402q.297.27.297.662a.8.8 0 0 1-.277.627c-.183.17-.465.301-.845.382-.38.08-.865.125-1.463.125h-2.56v3.428h2.62q1.525.001 2.184.235c.44.161.662.437.662.838q.001.639-.731.969c-.49.22-1.192.331-2.116.331q-1.527 0-2.328-.421c-.534-.281-.845-.698-.924-1.25h-5.245q.06 1.753 1.108 3.031 1.046 1.281 2.945 1.982c1.266.467 2.749.703 4.44.703 1.69 0 3.252-.211 4.472-.637s2.146-1.01 2.783-1.742q.956-1.105.954-2.529.001-1.338-.79-2.158zM13.38 24.152v15.471h5.245V28.9h6.05l2.051-4.748zM29.632 24.152l-6.687 15.476h5.59l4.32-10.774h3.228v10.774h5.244V24.152zM22.292 8.315q-1.274-2.01-3.564-3.116c-1.527-.743-3.311-1.11-5.348-1.11V9.4c1.246 0 2.284.2 3.094.592.648.316 1.103.698 1.424 1.205.188.296.44.808.44 1.806 0 .999-.252 1.51-.44 1.807-.321.507-.771.888-1.424 1.204-.81.391-1.848.592-3.094.592v5.31c2.042 0 3.821-.372 5.348-1.11q2.29-1.113 3.564-3.116 1.275-2.01 1.275-4.682c0-1.781-.425-3.347-1.275-4.682z"/>
    <path fill="#c72fcb" d="M13.38 12.997 0 4.08v17.834z"/>
  </g>
  <defs>
    <clipPath id="a">
      <path fill="#fff" d="M0 0h160v40H0z"/>
    </clipPath>
  </defs>
</svg>